<svg width="138" height="105" viewBox="0 0 138 105" fill="none" xmlns="http://www.w3.org/2000/svg">
<g clip-path="url(#clip0_831_693)">
<path d="M19.625 105H120.25C131.5 105 138 98.6696 138 86.1305V18.9303C138 6.45204 131.437 0.121582 118.375 0.121582H17.75C6.49997 0.121582 0 6.39115 0 18.9303V86.1305C0 98.73 6.5625 105 19.625 105ZM19.25 95.687C13 95.687 9.5625 92.4608 9.5625 86.1305V18.9303C9.5625 12.6607 13 9.43462 19.25 9.43462H118.75C124.875 9.43462 128.438 12.6607 128.438 18.9912V86.191C128.438 92.4608 124.875 95.687 118.75 95.687H19.25ZM69.1251 68.7827C73.5002 68.7827 77.7498 67.0175 82.1248 62.8171L132.875 14.2433L126.375 7.85205L76.6874 55.6346C74 58.252 71.5622 59.4086 69.1251 59.4086C66.6253 59.4086 64.1875 58.1912 61.5625 55.6346L11.625 7.60852L5.0625 13.9998L56.125 62.8171C60.5 67.0175 64.6874 68.7827 69.1251 68.7827ZM125.75 97.0259L132.25 90.6345L91.8125 51.739L85.3126 58.0694L125.75 97.0259ZM5.9375 90.6956L12.4375 97.087L52.9375 58.0694L46.375 51.739L5.9375 90.6956Z" fill="#656539"/>
</g>
<defs>
<clipPath id="clip0_831_693">
<rect width="138" height="105" fill="white"/>
</clipPath>
</defs>
</svg>
