<svg width="126" height="126" viewBox="0 0 126 126" fill="none" xmlns="http://www.w3.org/2000/svg">
<g clip-path="url(#clip0_828_685)">
<path d="M93.6623 126C104.935 126 112.343 122.98 118.85 115.655C119.365 115.141 119.88 114.563 120.331 114.049C124.196 109.744 126 105.504 126 101.455C126 96.8293 123.294 92.5243 117.561 88.5405L98.816 75.5617C93.0825 71.5779 86.2546 71.1278 80.8437 76.4612L75.8832 81.4083C74.4017 82.8867 73.1134 82.9505 71.6959 82.0511C68.2177 79.8667 61.1962 73.7623 56.4294 69.0079C51.4048 64.0603 46.5735 58.5345 43.9968 54.4866C43.1594 53.0088 43.2238 51.788 44.7054 50.3102L49.6011 45.3627C55.0121 39.9655 54.5612 33.1546 50.5674 27.4361L37.5551 8.73853C33.5613 3.02005 29.2453 0.385684 24.6073 0.32143C20.549 0.257178 16.2975 2.12051 11.9816 5.97568C11.4018 6.48971 10.8865 6.9395 10.3712 7.38927C3.0276 13.943 0 21.3321 0 32.4479C0 50.8242 11.3374 73.1839 32.1441 93.9376C52.822 114.563 75.3034 126 93.6623 126ZM93.7269 116.105C77.3008 116.426 56.2361 103.833 39.552 87.2555C22.7392 70.5501 9.53371 48.8324 9.8558 32.4479C9.98463 25.3801 12.4969 19.2761 17.5214 14.9068C17.9724 14.5213 18.2945 14.2 18.7454 13.8788C20.6779 12.2082 22.7392 11.3087 24.6073 11.3087C26.4754 11.3087 28.1503 12.0154 29.3741 13.943L41.8711 32.6407C43.2238 34.6325 43.3527 36.8813 41.3557 38.8731L35.6871 44.5274C31.2423 48.9609 31.5644 54.3581 34.7852 58.6631C38.457 63.6105 44.8343 70.8067 49.7944 75.69C54.6901 80.6378 62.4846 87.5766 67.5092 91.3038C71.8252 94.516 77.2361 94.8377 81.6807 90.4038L87.3496 84.75C89.3463 82.7577 91.5369 82.8867 93.5983 84.1717L112.343 96.6365C114.212 97.9215 114.984 99.5282 114.984 101.455C114.984 103.319 114.082 105.375 112.408 107.303C112.021 107.753 111.764 108.074 111.377 108.523C106.997 113.535 100.877 115.977 93.7269 116.105Z" fill="#656539"/>
</g>
<defs>
<clipPath id="clip0_828_685">
<rect width="126" height="126" fill="white"/>
</clipPath>
</defs>
</svg>
