<svg width="126" height="126" viewBox="0 0 126 126" fill="none" xmlns="http://www.w3.org/2000/svg">
<g clip-path="url(#clip0_831_697)">
<path d="M0.299316 126L9.15607 93.6442C3.69082 84.1732 0.819066 73.437 0.824316 62.4277C0.840066 28.0087 28.8488 0 63.2626 0C79.9628 0.00525 95.6393 6.51 107.431 18.312C119.217 30.114 125.706 45.801 125.701 62.4855C125.685 96.9098 97.6763 124.919 63.2626 124.919C52.8151 124.913 42.5198 122.294 33.4006 117.317L0.299316 126ZM34.9336 106.013C43.7326 111.237 52.1326 114.366 63.2416 114.371C91.8436 114.371 115.143 91.0928 115.159 62.475C115.169 33.7995 91.9801 10.5525 63.2836 10.542C34.6606 10.542 11.3768 33.8205 11.3663 62.433C11.3611 74.1143 14.7841 82.8607 20.5328 92.0115L15.2881 111.163L34.9336 106.013ZM94.7153 77.3272C94.3268 76.6763 93.2873 76.2878 91.7228 75.5055C90.1636 74.7233 82.4933 70.9485 81.0601 70.4287C79.6321 69.909 78.5926 69.6465 77.5478 71.211C76.5083 72.7702 73.5158 76.2878 72.6076 77.3272C71.6993 78.3668 70.7858 78.498 69.2266 77.7158C67.6673 76.9335 62.6378 75.2903 56.6791 69.972C52.0433 65.835 48.9091 60.7267 48.0008 59.1623C47.0926 57.603 47.9063 56.7578 48.6833 55.9808C49.3868 55.2825 50.2426 54.159 51.0248 53.2455C51.8176 52.3425 52.0748 51.6915 52.5998 50.6468C53.1196 49.6073 52.8623 48.6938 52.4686 47.9115C52.0748 47.1345 48.9563 39.4538 47.6596 36.33C46.3891 33.2902 45.1028 33.6997 44.1473 33.6525L41.1548 33.6C40.1153 33.6 38.4248 33.9885 36.9968 35.553C35.5688 37.1175 31.5368 40.887 31.5368 48.5678C31.5368 56.2485 37.1281 63.6667 37.9051 64.7062C38.6873 65.7458 48.9038 81.5062 64.5541 88.263C68.2763 89.8695 71.1848 90.8302 73.4476 91.5495C77.1856 92.736 80.5876 92.568 83.2756 92.169C86.2733 91.7227 92.5051 88.3942 93.8071 84.7507C95.1091 81.102 95.1091 77.9782 94.7153 77.3272Z" fill="#656539"/>
</g>
<defs>
<clipPath id="clip0_831_697">
<rect width="126" height="126" fill="white"/>
</clipPath>
</defs>
</svg>
